<svg width="1722" height="1065" viewBox="0 0 1722 1065" fill="none" xmlns="http://www.w3.org/2000/svg">
<rect width="1722" height="1065" fill="white"/>
<g clip-path="url(#clip0_24_178)">
<path d="M661.577 484.948C661.577 496.316 662.795 505.513 664.928 512.273C667.365 519.032 670.393 526.401 674.658 534.38C676.182 536.836 676.791 539.293 676.791 541.444C676.791 544.51 674.963 547.576 671.021 550.66L651.866 563.552C649.124 565.399 646.401 566.313 643.963 566.313C640.917 566.313 637.889 564.77 634.842 562.009C630.577 557.401 626.94 552.489 623.893 547.576C620.847 542.358 617.819 536.532 614.468 529.467C590.761 557.706 560.961 571.835 525.086 571.835C499.551 571.835 479.177 564.466 464.286 549.727C449.395 534.989 441.798 515.338 441.798 490.774C441.798 464.687 450.919 443.494 469.465 427.537C488.012 411.58 512.633 403.583 543.937 403.583C554.277 403.583 564.921 404.497 576.156 406.039C587.39 407.581 598.949 410.038 611.116 412.799V390.387C611.116 367.061 606.261 350.78 596.835 341.259C587.105 331.738 570.691 327.13 547.289 327.13C536.644 327.13 525.714 328.349 514.461 331.129C503.207 333.89 492.277 337.261 481.633 341.564C476.777 343.716 473.121 344.934 470.989 345.563C468.856 346.172 467.333 346.477 466.133 346.477C461.868 346.477 459.754 343.411 459.754 336.956V321.913C459.754 317 460.363 313.325 461.887 311.173C463.41 309.022 466.152 306.87 470.398 304.718C481.043 299.196 493.801 294.588 508.71 290.894C523.601 286.895 539.405 285.067 556.124 285.067C592.303 285.067 618.752 293.35 635.775 309.936C652.494 326.521 661.006 351.694 661.006 385.455V484.929L661.577 484.948ZM538.149 531.6C548.184 531.6 558.523 529.753 569.453 526.078C580.402 522.403 590.132 515.643 598.339 506.427C603.195 500.6 606.851 494.145 608.679 486.776C610.507 479.407 611.726 470.495 611.726 460.06V447.169C602.909 445.017 593.484 443.17 583.753 441.952C574.023 440.733 564.598 440.105 555.172 440.105C534.797 440.105 519.907 444.103 509.872 452.386C499.837 460.67 494.981 472.342 494.981 487.69C494.981 502.123 498.637 512.863 506.235 520.232C513.528 527.925 524.172 531.6 538.149 531.6ZM782.263 564.77C776.798 564.77 773.142 563.856 770.705 561.705C768.267 559.858 766.154 555.573 764.326 549.727L692.881 312.411C691.053 306.28 690.139 302.281 690.139 300.129C690.139 295.217 692.577 292.456 697.432 292.456H727.232C733.002 292.456 736.963 293.37 739.095 295.521C741.533 297.368 743.342 301.653 745.17 307.498L796.239 510.749L843.653 307.498C845.177 301.367 847.004 297.368 849.423 295.521C851.86 293.674 856.106 292.456 861.59 292.456H885.907C891.676 292.456 895.637 293.37 898.074 295.521C900.512 297.368 902.625 301.653 903.844 307.498L951.867 513.206L1004.46 307.498C1006.29 301.367 1008.42 297.368 1010.53 295.521C1012.97 293.674 1016.91 292.456 1022.4 292.456H1050.67C1055.53 292.456 1058.27 294.912 1058.27 300.129C1058.27 301.672 1057.97 303.195 1057.66 305.042C1057.36 306.889 1056.75 309.345 1055.53 312.716L982.276 550.032C980.448 556.164 978.316 560.162 975.898 562.009C973.479 563.856 969.519 565.075 964.339 565.075H938.195C932.425 565.075 928.465 564.161 926.027 562.009C923.59 559.858 921.476 555.878 920.258 549.727L873.149 351.694L826.344 549.423C824.821 555.554 822.993 559.553 820.575 561.705C818.137 563.856 813.891 564.77 808.407 564.77H782.263ZM1172.88 573.054C1157.08 573.054 1141.27 571.206 1126.08 567.531C1110.88 563.856 1099.02 559.858 1091.12 555.25C1086.26 552.489 1082.91 549.423 1081.69 546.662C1080.47 543.901 1079.87 540.835 1079.87 538.074V522.422C1079.87 515.967 1082.3 512.901 1086.85 512.901C1088.68 512.901 1090.51 513.206 1092.32 513.815C1094.15 514.424 1096.87 515.662 1099.92 516.881C1110.26 521.489 1121.49 525.164 1133.35 527.62C1145.52 530.076 1157.36 531.295 1169.53 531.295C1188.69 531.295 1203.58 527.925 1213.92 521.165C1224.26 514.405 1229.72 504.58 1229.72 491.993C1229.72 483.405 1226.98 476.341 1221.52 470.495C1216.05 464.668 1205.71 459.451 1190.82 454.538L1146.74 440.714C1124.56 433.649 1108.14 423.215 1098.11 409.39C1088.07 395.89 1082.91 380.847 1082.91 364.871C1082.91 351.98 1085.65 340.612 1091.12 330.786C1096.58 320.961 1103.9 312.373 1113 305.613C1122.12 298.549 1132.46 293.331 1144.61 289.656C1156.77 286 1169.53 284.458 1182.92 284.458C1189.6 284.458 1196.59 284.763 1203.29 285.677C1210.28 286.591 1216.66 287.828 1223.06 289.047C1229.13 290.589 1234.92 292.113 1240.39 293.96C1245.85 295.807 1250.12 297.635 1253.16 299.482C1257.43 301.938 1260.46 304.395 1262.28 307.156C1264.11 309.612 1265.03 312.982 1265.03 317.286V331.719C1265.03 338.175 1262.59 341.545 1258.04 341.545C1255.6 341.545 1251.66 340.326 1246.48 337.87C1229.15 329.891 1209.69 325.893 1188.12 325.893C1170.79 325.893 1157.12 328.654 1147.69 334.48C1138.27 340.307 1133.41 349.219 1133.41 361.805C1133.41 370.393 1136.46 377.762 1142.53 383.608C1148.61 389.435 1159.86 395.281 1175.97 400.498L1219.14 414.322C1241.01 421.387 1256.84 431.212 1266.24 443.799C1275.65 456.385 1280.22 470.819 1280.22 486.776C1280.22 499.972 1277.48 511.949 1272.32 522.384C1266.85 532.818 1259.54 542.035 1250.14 549.404C1240.71 557.078 1229.46 562.6 1216.39 566.598C1202.66 570.902 1188.38 573.054 1172.88 573.054Z" fill="#252F3E"/>
<path d="M1230.33 722.264C1130.33 796.87 985.018 836.476 860.067 836.476C684.979 836.476 527.199 771.087 408.037 662.397C398.611 653.81 407.123 642.137 418.376 648.897C547.269 724.416 706.248 770.173 870.711 770.173C981.667 770.173 1103.57 746.847 1215.73 698.938C1232.46 691.265 1246.75 709.983 1230.33 722.264ZM1271.98 674.375C1259.2 657.789 1187.47 666.396 1154.95 670.376C1145.22 671.595 1143.69 663.007 1152.51 656.552C1209.65 616.031 1303.59 627.685 1314.53 641.204C1325.48 655.028 1311.49 749.894 1258 795.327C1249.79 802.392 1241.89 798.698 1245.53 789.501C1257.69 759.11 1284.75 690.636 1271.98 674.375Z" fill="#FF9900"/>
</g>
<defs>
<clipPath id="clip0_24_178">
<rect width="914" height="914" fill="white" transform="translate(404 75)"/>
</clipPath>
</defs>
</svg>
