<svg width="1722" height="1065" viewBox="0 0 1722 1065" fill="none" xmlns="http://www.w3.org/2000/svg">
<rect width="1722" height="1065" fill="white"/>
<path d="M684.266 681.609L522.645 584.93L519.227 495.086L683.777 391.082L718.445 474.09L598.816 536.59L724.305 597.625L684.266 681.609ZM978.211 374.969C952.007 431.772 927.755 489.552 905.457 548.309C883.322 606.902 862.651 666.147 843.445 726.043L745.789 687.957C757.671 658.497 769.552 629.119 781.434 599.822C793.315 570.363 805.441 541.147 817.811 512.176C830.343 483.042 843.364 454.152 856.873 425.506C870.382 396.86 884.786 368.621 900.086 340.789L978.211 374.969ZM1039.98 681.609L1004.82 597.625L1124.94 535.125L999.939 474.09L1039.49 391.082L1201.11 486.785L1205.02 577.117L1039.98 681.609Z" fill="#0EA5E9"/>
</svg>
