<svg width="1722" height="1065" viewBox="0 0 1722 1065" fill="none" xmlns="http://www.w3.org/2000/svg">
<rect width="1722" height="1065" fill="white"/>
<path d="M1176.91 210.054C1173.99 206.827 1169.79 205 1165.41 205H556.594C552.212 205 548.012 206.827 545.09 210.054C542.107 213.281 540.647 217.604 541.073 221.987L595.916 836.515C596.463 842.969 600.968 848.327 607.176 850.154L856.678 921.391C858.017 921.817 859.478 922 860.939 922C862.4 922 863.8 921.817 865.2 921.391L1114.88 850.154C1121.09 848.327 1125.54 842.969 1126.15 836.515L1180.93 221.987C1181.35 217.604 1179.89 213.281 1176.91 210.054ZM1045.62 421.939H752.471L759.471 501.274H1038.55L1017.62 735.748L860.878 783.118L859.357 782.631L704.445 735.687L695.984 640.156H771.888L775.175 677.236L861.791 695.38L946.825 677.236L955.895 576.895H690.323L669.689 346.135H1052.37L1045.62 421.939Z" fill="black"/>
</svg>
