<svg width="1722" height="1065" viewBox="0 0 1722 1065" fill="none" xmlns="http://www.w3.org/2000/svg">
<rect width="1722" height="1065" fill="white"/>
<path d="M517.375 876.625V190.375H1203.62V876.625H517.375Z" fill="#FFD600"/>
<path d="M966.068 704.052C979.259 725.478 993.594 746.009 1023.96 746.009C1049.47 746.009 1062.85 733.332 1062.85 715.795C1062.85 694.807 1049.01 687.353 1020.95 675.134L1005.57 668.577C961.169 649.743 931.641 626.144 931.641 576.295C931.641 530.355 966.811 495.394 1021.77 495.394C1060.9 495.394 1089.02 508.947 1109.3 544.442L1061.38 575.075C1050.84 556.242 1039.44 548.826 1021.77 548.826C1003.74 548.826 992.317 560.207 992.317 575.075C992.317 593.452 1003.75 600.886 1030.16 612.266L1045.54 618.824C1097.87 641.108 1127.37 663.868 1127.37 715.032C1127.37 770.161 1083.84 800.375 1025.39 800.375C968.222 800.375 935.759 771.686 917.687 736.172L966.068 704.052ZM745.21 705.615C754.855 722.886 769.515 736.172 790.598 736.172C810.766 736.172 822.375 728.204 822.375 697.228V495.375H885.91V706.988C885.91 771.171 848.681 800.375 794.315 800.375C745.191 800.375 709.735 767.092 695.285 736.172L745.21 705.615Z" fill="#000001"/>
</svg>
