<svg width="1722" height="1065" viewBox="0 0 1722 1065" fill="none" xmlns="http://www.w3.org/2000/svg">
<rect width="1722" height="1065" fill="white"/>
<path d="M861.893 171C832.348 171.095 811.866 173.698 787.109 177.973C713.997 190.703 700.678 217.436 700.678 266.703V342H871.678V380H694.18H611.53C561.446 380 517.613 403.598 503.724 460.161C488.03 525.084 487.327 565.744 503.724 633.536C516.169 684.095 543.586 722 593.689 722H662.697V625.024C662.697 568.67 713.731 513 772.213 513H909.697C957.634 513 1004.7 477.622 1004.7 429.837V266.703C1004.7 220.362 971.276 185.706 924.555 177.935C925.714 177.821 891.191 170.886 861.893 171ZM767.197 247C782.796 247 795.697 259.863 795.697 275.538C795.697 291.365 782.796 304 767.197 304C751.294 304 738.697 291.384 738.697 275.538C738.697 259.92 751.294 247 767.197 247Z" fill="#0277BD"/>
<path d="M843.482 893C873.027 892.905 893.509 890.302 918.266 886.027C991.378 873.297 1004.7 846.564 1004.7 797.297V722H833.697V684H1011.21H1093.86C1143.95 684 1187.78 660.402 1201.67 603.839C1217.36 538.916 1218.07 498.256 1201.67 430.464C1189.21 379.905 1161.79 342 1111.69 342H1042.68V438.976C1042.68 495.33 991.644 551 933.162 551H795.678C747.741 551 700.678 586.378 700.678 634.163V797.297C700.678 843.638 734.099 878.294 780.82 886.065C779.661 886.179 814.184 893.114 843.482 893ZM938.197 817C922.598 817 909.697 804.137 909.697 788.462C909.697 772.635 922.598 760 938.197 760C954.1 760 966.697 772.616 966.697 788.462C966.697 804.08 954.081 817 938.197 817Z" fill="#FFC107"/>
</svg>
