<svg width="1722" height="1065" viewBox="0 0 1722 1065" fill="none" xmlns="http://www.w3.org/2000/svg">
<rect width="1722" height="1065" fill="white"/>
<path fill-rule="evenodd" clip-rule="evenodd" d="M1022.18 259.731L1255.07 452.788L1170.39 623.429L1030.89 584.807H908.834L1022.18 259.731Z" fill="#26C6DA"/>
<path fill-rule="evenodd" clip-rule="evenodd" d="M983.555 252.254L804.202 133.938L511.505 255.993L462.938 771.637L735.706 931.062L809.193 845.125L786.76 385.525L983.555 252.254Z" fill="#66BB6A"/>
<path fill-rule="evenodd" clip-rule="evenodd" d="M1088.19 351.894H811.68L1055.79 133.938L1088.19 351.894Z" fill="#9CCC65"/>
<path fill-rule="evenodd" clip-rule="evenodd" d="M1260.06 846.358L1017.19 929.81L693.364 838.9L786.779 385.525L824.13 351.894L1022.18 333.219L1003.48 531.247L1160.42 470.229L1260.06 846.358Z" fill="#FFEE58"/>
<path fill-rule="evenodd" clip-rule="evenodd" d="M614.771 285.771H1108.23V779.229H614.771V285.771Z" fill="#212121"/>
<path fill-rule="evenodd" clip-rule="evenodd" d="M671.708 703.313H861.5V741.271H671.708V703.313ZM673.132 342.708H761.062C812.781 342.708 842.521 371.803 842.521 414.829C842.521 462.903 803.728 488.222 755.881 488.222H719.669V551.479H673.113L673.132 342.708ZM794.675 417.354C794.675 397.103 780.459 385.715 755.881 385.715H719.669V450.244H757.172C782.585 450.263 794.675 435.08 794.675 417.354ZM877.044 447.113C876.418 419.251 887.217 392.339 906.936 372.62C926.637 352.919 953.549 342.12 981.43 342.727C1019.05 342.727 1042.11 354.855 1060.31 374.29L1032.39 407.067C1016.62 392.51 1000.83 384.007 981.411 384.007C947.438 384.007 923.163 411.925 923.163 447.113C923.163 481.086 947.438 510.219 981.411 510.219C1004.47 510.219 1019.03 500.501 1034.82 487.159L1062.74 515.077C1042.09 536.922 1019.03 551.479 980.196 551.479C952.619 551.479 926.2 540.452 906.822 520.828C887.445 501.222 876.721 474.671 877.044 447.113Z" fill="white"/>
</svg>
