<svg width="1722" height="1065" viewBox="0 0 1722 1065" fill="none" xmlns="http://www.w3.org/2000/svg">
<rect width="1722" height="1065" fill="white"/>
<path d="M728.975 202C710.359 202 693.094 206.167 677.8 214.972C630.002 242.569 611.808 309.819 621.449 393.547C544.134 427.063 495 476.414 495 531.599C495 586.785 544.134 636.136 621.449 669.651C611.813 753.377 630.002 820.63 677.8 848.227C693.064 857.031 710.329 861.199 728.975 861.199C768.661 861.199 814.53 841.28 860.6 807.108C906.674 841.28 952.598 861.199 992.285 861.199C1010.9 861.199 1028.17 857.031 1043.46 848.227C1091.26 820.63 1109.45 753.379 1099.81 669.651C1177.1 636.136 1226.2 586.773 1226.2 531.599C1226.2 476.414 1177.07 427.063 1099.75 393.547C1109.39 309.822 1091.2 242.569 1043.4 214.972C1028.14 206.137 1010.87 202 992.226 202C952.539 202 906.67 221.918 860.6 256.09C814.527 221.918 768.647 202 728.975 202ZM728.975 255.317C752.788 255.317 784.28 267.979 818.47 291.436C798.368 310.407 778.68 331.98 759.739 355.999C729.017 360.405 700.051 366.826 673.218 374.863C673.074 373.002 672.733 371.049 672.623 369.21C669.363 314.979 681.273 274.554 704.458 261.148C711.313 257.188 719.317 255.317 728.975 255.317ZM992.226 255.317C1001.85 255.317 1009.89 257.188 1016.74 261.148C1039.93 274.523 1051.84 314.979 1048.58 369.21C1048.47 371.049 1048.13 373.002 1047.98 374.863C1021.13 366.821 992.145 360.405 961.402 355.999C942.461 331.983 922.832 310.405 902.73 291.436C936.918 267.983 968.424 255.317 992.226 255.317ZM860.6 325.295C868.859 332.812 877.06 340.757 885.354 349.454C877.135 349.178 868.959 348.799 860.6 348.799C852.261 348.799 844.105 349.179 835.905 349.454C844.192 340.766 852.349 332.805 860.6 325.295ZM860.6 402.116C885.847 402.116 909.777 403.527 932.482 405.984C946.329 424.804 959.975 444.703 972.767 466.858C985.028 488.094 995.87 509.831 1005.44 531.599C995.869 553.381 985.035 575.152 972.767 596.401C960.015 618.492 946.403 638.262 932.601 657.036C909.094 659.608 884.98 661.083 860.6 661.083C835.353 661.083 811.423 659.671 788.718 657.215C774.871 638.394 761.225 618.556 748.433 596.401C736.165 575.152 725.334 553.381 715.764 531.599C725.327 509.831 736.172 488.094 748.433 466.858C761.19 444.767 774.794 424.937 788.599 406.162C812.106 403.59 836.22 402.116 860.6 402.116ZM1005.2 418.599C1017.29 421.517 1028.91 424.668 1039.83 428.179C1037.35 439.362 1034.33 450.759 1030.9 462.276C1026.98 454.919 1023.18 447.539 1018.94 440.199C1014.58 432.65 1009.74 425.867 1005.2 418.599ZM715.943 418.658C711.414 425.904 706.603 432.674 702.257 440.199C698.02 447.54 694.215 454.918 690.296 462.276C686.864 450.736 683.788 439.325 681.311 428.12C692.435 424.605 704.027 421.492 715.943 418.658ZM631.148 447.697C637.567 474.801 646.472 502.897 657.925 531.54C646.496 560.114 637.629 588.159 631.207 615.204C578.151 589.584 548.317 557.69 548.317 531.599C548.317 504.819 577.317 474.3 625.911 450.018C627.57 449.188 629.453 448.507 631.148 447.697ZM1089.99 447.995C1143.05 473.615 1172.88 505.509 1172.88 531.599C1172.88 558.38 1143.88 588.899 1095.29 613.181C1093.63 614.011 1091.75 614.691 1090.05 615.502C1083.63 588.382 1074.8 560.259 1063.33 531.599C1074.75 503.049 1083.58 475.017 1089.99 447.995ZM860.6 470.666C826.934 470.666 799.667 497.934 799.667 531.599C799.667 565.265 826.934 592.533 860.6 592.533C894.266 592.533 921.533 565.265 921.533 531.599C921.533 497.934 894.266 470.666 860.6 470.666ZM690.296 600.923C694.218 608.282 698.076 615.657 702.316 622.999C706.672 630.544 711.463 637.337 716.002 644.6C703.915 641.681 692.294 638.531 681.37 635.019C683.847 623.83 686.869 612.447 690.296 600.923ZM1030.9 600.982C1034.33 612.511 1037.41 623.884 1039.89 635.079C1028.76 638.594 1017.17 641.706 1005.26 644.54C1009.79 637.295 1014.6 630.525 1018.94 622.999C1023.17 615.674 1026.99 608.325 1030.9 600.982ZM673.218 688.336C700.068 696.378 729.055 702.794 759.798 707.199C778.745 731.227 798.359 752.846 818.47 771.822C784.282 795.272 752.787 807.942 728.975 807.942C719.347 807.942 711.313 806.011 704.458 802.05C681.273 788.676 669.363 748.279 672.623 694.049C672.735 692.19 673.071 690.217 673.218 688.336ZM1047.98 688.336C1048.13 690.217 1048.47 692.19 1048.58 694.049C1051.84 748.279 1039.93 788.645 1016.74 802.05C1009.89 806.011 1001.88 807.942 992.226 807.942C968.413 807.942 936.918 795.276 902.73 771.822C922.842 752.844 942.511 731.231 961.461 707.199C992.183 702.794 1021.15 696.372 1047.98 688.336ZM835.846 713.745C844.065 714.021 852.241 714.399 860.6 714.399C868.959 714.399 877.135 714.021 885.354 713.745C877.06 722.441 868.859 730.387 860.6 737.904C852.341 730.387 844.14 722.441 835.846 713.745Z" fill="#61DAFB"/>
</svg>
