<svg width="1722" height="1065" viewBox="0 0 1722 1065" fill="none" xmlns="http://www.w3.org/2000/svg">
<rect width="1722" height="1065" fill="white"/>
<path d="M1240.57 525.557C1241.89 444.509 1223.63 348.131 1185.58 235.052L1155.76 146.377L1115.25 230.696C1113.08 235.204 1110.6 239.617 1108.02 243.973C1041.46 186.834 955.11 152.083 860.5 152.083C650.396 152.083 480.083 322.396 480.083 532.5C480.083 742.604 650.396 912.916 860.5 912.916C1070.6 912.916 1240.92 742.604 1240.92 532.5C1240.92 530.16 1240.61 527.897 1240.57 525.557Z" fill="#8BC34A"/>
<path d="M1153.14 695.28C1093.73 777.108 988.586 781.502 889.621 779.771H760.641H723.778C808.002 749.471 858.122 742.262 909.307 715.1C1005.7 664.409 1101 553.499 1120.84 438.119C1084.13 549.124 972.875 644.495 871.494 683.278C802.03 709.774 676.568 735.49 676.568 735.49L671.49 732.732C586.086 689.764 583.5 498.529 738.767 436.787C806.747 409.721 871.779 424.595 945.219 406.487C1023.62 387.238 1114.31 326.447 1151.21 247.188C1192.53 373.999 1242.25 572.558 1153.14 695.28ZM702.018 807.256C696.654 813.913 688.456 817.812 679.897 817.812C664.243 817.812 651.461 804.935 651.461 789.281C651.461 773.627 664.338 760.75 679.897 760.75C686.383 760.75 692.774 762.994 697.796 767.141C709.969 777.013 711.871 795.083 702.018 807.256Z" fill="white"/>
</svg>
