<svg width="1722" height="1065" viewBox="0 0 1722 1065" fill="none" xmlns="http://www.w3.org/2000/svg">
<rect width="1722" height="1065" fill="white"/>
<path d="M403.038 707.699H439.678V572.493L490.573 688.081C496.852 702.489 505.439 707.584 522.29 707.584C539.14 707.584 547.384 702.489 553.663 688.081L604.558 575.451V707.699H641.198V569.192C641.198 555.891 635.912 549.441 624.996 546.12C598.909 537.914 581.391 544.994 573.471 562.761L521.278 680.314L470.727 562.761C463.132 545.013 445.308 537.914 419.202 546.12C408.286 549.441 403 555.872 403 569.173V707.68L403.038 707.699Z" fill="#00796B"/>
<path d="M659.499 597.779H696.139V675.162C695.853 678.979 697.36 689.112 715.032 689.379C724.039 689.532 768.866 689.379 769.419 689.379V597.779H806.059C806.212 597.779 806.059 711.669 806.059 712.146C806.25 740.236 771.175 743.862 755.049 744.339H659.518V726.019C659.709 726.019 750.87 726.038 751.137 726.019C771.9 723.825 769.438 712.394 769.438 708.921V707.699H711.959C680.09 707.413 659.766 693.368 659.537 677.357C659.499 675.868 660.224 598.466 659.499 597.779Z" fill="#00796B"/>
<path d="M824.379 707.699H916.113C928.135 707.699 939.814 705.18 949.089 700.829C964.546 693.73 970.92 684.131 970.92 671.517V645.411C970.92 617.244 935.997 616.099 915.96 616.099H879.32C864.912 616.099 862.717 607.397 861 597.779V579.459C862.717 572.131 865.923 562.284 878.614 561.139C893.365 561.139 970.901 561.139 970.901 561.139V542.819H883.766C869.358 542.819 824.341 544.537 824.341 579.459V602.111C824.341 618.141 838.424 631.194 868.996 634.4C872.431 634.629 875.866 634.858 879.282 634.858C879.282 634.858 914.891 634.171 915.922 634.4C936.532 634.4 934.242 650.43 934.242 652.72V671.04C934.242 673.559 933.669 689.36 915.712 689.36C914.338 689.36 824.322 689.36 824.322 689.36V707.699H824.379Z" fill="#F57F17"/>
<path d="M1172.44 670.277C1172.44 692.394 1184.94 704.798 1218.09 707.279C1221.18 707.489 1224.29 707.68 1227.4 707.68H1319V689.36H1234.37C1215.45 689.36 1209.08 681.421 1209.08 670.067V542.8H1172.44V670.277Z" fill="#F57F17"/>
<path d="M988.935 671.059V579.459C988.935 559.994 998.476 546.56 1025.5 542.819H1038.32H1104.1H1114.12C1141.14 546.56 1153.81 559.975 1153.81 579.459V670.716C1153.81 686.498 1149.71 694.971 1136.33 700.467L1164.73 726H1123.51L1103.09 707.68H1079.1L1038.34 707.909C1032.44 707.909 1026.22 707.089 1019.39 705.218C998.896 699.627 988.935 688.864 988.935 671.059ZM1025.57 671.059C1027.44 679.971 1034.6 689.379 1047.33 689.379H1082.9L1062.52 671.059H1104.03L1113.93 680.258C1113.93 680.258 1117.48 677.357 1117.48 671.059C1117.48 664.762 1117.17 579.459 1117.17 579.459C1115.3 571.177 1106.91 561.139 1094.5 561.139H1047.35C1033.06 561.139 1025.59 571.597 1025.59 581.33L1025.57 671.059Z" fill="#F57F17"/>
<path d="M1284.63 523.507C1264.96 522.973 1249.94 524.805 1237.09 530.205C1233.45 531.751 1227.63 531.789 1227.02 536.369C1229.02 538.468 1229.33 541.617 1230.93 544.193C1233.98 549.155 1239.17 555.815 1243.79 559.288C1248.85 563.105 1254.06 567.189 1259.46 570.49C1269.08 576.349 1279.82 579.707 1289.1 585.585C1294.55 589.039 1299.97 593.428 1305.32 597.321C1307.95 599.268 1309.71 602.264 1313.14 603.485C1313.14 603.294 1313.14 603.123 1313.14 602.932C1311.35 600.642 1310.87 597.493 1309.23 595.089C1306.81 592.665 1304.38 590.241 1301.96 587.818C1294.86 578.391 1285.81 570.089 1276.23 563.219C1268.58 557.723 1251.46 550.3 1248.26 541.407C1248.07 541.216 1247.9 541.045 1247.69 540.835C1253.11 540.224 1259.46 538.258 1264.46 536.923C1272.88 534.671 1280.38 535.262 1289.06 533.011C1292.97 531.885 1296.88 530.778 1300.79 529.652C1300.79 528.908 1300.79 528.163 1300.79 527.419C1296.41 522.915 1293.26 516.961 1288.49 512.878C1275.95 502.21 1262.28 491.562 1248.22 482.669C1240.41 477.745 1230.76 474.539 1222.5 470.36C1219.71 468.948 1214.82 468.223 1212.99 465.894C1208.64 460.36 1206.29 453.319 1202.94 446.887C1195.91 433.376 1189 418.606 1182.8 404.389C1178.55 394.695 1175.78 385.115 1170.49 376.413C1145.09 334.658 1117.75 309.449 1075.42 284.679C1066.41 279.412 1055.55 277.332 1044.09 274.603C1037.92 274.241 1031.78 273.859 1025.61 273.477C1021.85 271.893 1017.96 267.313 1014.41 265.081C1000.38 256.207 964.393 236.933 954.012 262.275C947.447 278.267 963.821 293.877 969.679 301.988C973.782 307.675 979.049 314.048 981.988 320.46C983.916 324.659 984.259 328.876 985.9 333.323C989.965 344.276 996.396 356.757 1001.66 366.89C1004.32 372.024 1007.25 377.405 1010.61 381.985C1012.67 384.79 1016.2 386.031 1016.78 390.382C1013.32 395.21 1013.13 402.71 1011.19 408.854C1002.45 436.43 1005.75 470.684 1018.46 491.065C1022.35 497.325 1031.55 510.759 1044.18 505.607C1055.23 501.103 1052.77 487.153 1055.92 474.845C1056.62 472.058 1056.18 470.016 1057.6 468.146C1057.6 468.337 1057.6 468.509 1057.6 468.719C1060.95 475.417 1064.29 482.153 1067.67 488.852C1075.13 500.855 1088.36 513.393 1099.54 521.866C1105.34 526.255 1109.92 533.85 1117.44 536.407C1117.44 536.217 1117.44 536.045 1117.44 535.835C1117.25 535.835 1117.08 535.835 1116.87 535.835C1115.42 533.564 1113.13 532.629 1111.28 530.797C1106.91 526.503 1102.02 521.179 1098.42 516.255C1088.23 502.42 1079.22 487.268 1071.01 471.505C1067.1 463.967 1063.68 455.685 1060.38 448.013C1059.1 445.055 1059.12 440.59 1056.47 439.063C1052.84 444.674 1047.54 449.216 1044.73 455.838C1040.27 466.429 1039.68 479.367 1038.04 492.745C1037.04 493.088 1037.48 492.859 1036.91 493.298C1029.12 491.409 1026.38 483.413 1023.48 476.524C1016.15 459.12 1014.79 431.106 1021.24 411.087C1022.9 405.896 1030.44 389.58 1027.41 384.79C1025.96 380 1021.15 377.233 1018.48 373.588C1015.14 369.085 1011.83 363.131 1009.53 357.921C1003.53 344.353 997.846 328.571 991.53 314.85C988.515 308.285 983.419 301.663 979.221 295.843C974.584 289.393 969.374 284.641 965.786 276.836C964.508 274.069 962.771 269.622 964.661 266.76C965.271 264.832 966.111 264.031 968.019 263.401C971.263 260.882 980.29 264.222 983.687 265.634C992.656 269.355 1000.14 272.905 1007.73 277.943C1011.38 280.366 1015.06 285.042 1019.47 286.339C1021.15 286.339 1022.83 286.339 1024.51 286.339C1032.39 288.152 1041.2 286.912 1048.55 289.145C1061.57 293.095 1073.21 299.24 1083.78 305.919C1116.03 326.281 1142.38 355.249 1160.42 389.828C1163.32 395.401 1164.58 400.706 1167.12 406.603C1172.27 418.511 1178.78 430.762 1183.89 442.403C1189 454.025 1194 465.742 1201.24 475.417C1205.05 480.493 1219.75 483.222 1226.41 486.046C1231.08 488.031 1238.75 490.073 1243.18 492.745C1251.65 497.859 1259.86 503.947 1267.78 509.519C1271.83 512.324 1284.02 518.45 1284.63 523.507Z" fill="#00796B"/>
<path d="M1034.62 310.423C1030.52 310.346 1027.62 310.861 1024.54 311.548C1024.54 311.739 1024.54 311.911 1024.54 312.121C1024.73 312.121 1024.91 312.121 1025.12 312.121C1027.08 316.128 1030.52 318.743 1032.94 322.197C1034.81 326.109 1036.66 330.021 1038.53 333.933C1038.72 333.742 1038.89 333.571 1039.09 333.38C1042.54 330.937 1044.14 327.044 1044.12 321.071C1042.73 319.602 1042.52 317.77 1041.32 316.033C1039.72 313.686 1036.62 312.369 1034.62 310.423Z" fill="#00796B"/>
</svg>
