<svg width="1722" height="1065" viewBox="0 0 1722 1065" fill="none" xmlns="http://www.w3.org/2000/svg">
<rect width="1722" height="1065" fill="white"/>
<g clip-path="url(#clip0_158_3672)">
<path d="M859.643 473.5C818.792 473.5 789.081 499.531 789.081 540.438C789.081 581.344 822.505 607.375 863.357 607.375C889.353 607.375 911.636 596.219 922.777 581.344L896.781 562.75C889.353 573.906 874.498 577.625 863.357 577.625C844.788 577.625 829.933 566.469 826.219 551.594H930.205V540.438C930.205 499.531 900.495 473.5 859.643 473.5ZM826.219 529.281C829.933 514.406 841.074 503.25 859.643 503.25C878.212 503.25 889.353 514.406 893.067 529.281H826.219ZM1260.73 473.5C1219.88 473.5 1190.17 499.531 1190.17 540.438C1190.17 581.344 1223.59 607.375 1264.45 607.375C1286.73 607.375 1309.01 596.219 1323.87 581.344L1294.16 562.75C1286.73 573.906 1275.59 577.625 1264.45 577.625C1245.88 577.625 1231.02 566.469 1223.59 551.594H1327.58L1331.29 540.438C1331.29 499.531 1301.58 473.5 1260.73 473.5ZM1223.59 529.281C1231.02 514.406 1242.16 503.25 1260.73 503.25C1279.3 503.25 1290.44 514.406 1294.16 529.281H1223.59ZM1078.76 540.438C1078.76 562.75 1093.61 577.625 1115.89 577.625C1130.75 577.625 1141.89 570.188 1149.32 559.031L1179.03 577.625C1167.89 596.219 1145.6 607.375 1115.89 607.375C1075.04 607.375 1045.33 581.344 1045.33 540.438C1045.33 499.531 1075.04 473.5 1115.89 473.5C1145.6 473.5 1167.89 484.656 1179.03 503.25L1149.32 521.844C1141.89 510.688 1130.75 503.25 1115.89 503.25C1093.61 503.25 1078.76 518.125 1078.76 540.438ZM1387 432.594V603.656H1353.58V432.594H1387ZM473.41 414L610.82 652H336L473.41 414ZM815.078 432.594L714.806 611.094L610.82 432.594H647.958L714.806 544.156L777.94 432.594H815.078ZM1034.19 477.219V514.406L1023.05 510.688C1000.77 510.688 985.912 525.562 985.912 547.875V603.656H952.488V477.219H985.912V510.688C985.912 492.094 1008.19 477.219 1034.19 477.219Z" fill="black"/>
</g>
<defs>
<clipPath id="clip0_158_3672">
<rect width="1051" height="238" fill="white" transform="translate(336 414)"/>
</clipPath>
</defs>
</svg>
